<?xml version="1.0" encoding="UTF-8"?><svg id="a" xmlns="http://www.w3.org/2000/svg" xmlns:xlink="http://www.w3.org/1999/xlink" viewBox="0 0 666.72 496.24"><defs><style>.g{fill:#fff;}.h{fill:url(#c);}.i{fill:url(#f);}.j{fill:url(#b);}.k{fill:url(#d);}.l{fill:url(#e);}</style><radialGradient id="b" cx="322.58" cy="439.19" fx="519.08" fy="364.55" r="210.19" gradientTransform="translate(0 557.28) scale(1 -1)" gradientUnits="userSpaceOnUse"><stop offset=".27" stop-color="#6d6e71"/><stop offset=".53" stop-color="#fff"/></radialGradient><radialGradient id="c" cx="201.22" cy="278.52" fx="201.22" fy="278.52" r="100.47" gradientTransform="translate(0 557.28) scale(1 -1)" gradientUnits="userSpaceOnUse"><stop offset="0" stop-color="#6d6e71"/><stop offset=".53" stop-color="#fff"/></radialGradient><radialGradient id="d" cx="300.71" cy="318.87" fx="255.91" fy="318.87" r="101.32" gradientTransform="translate(0 557.28) scale(1 -1)" gradientUnits="userSpaceOnUse"><stop offset="0" stop-color="#6d6e71"/><stop offset=".53" stop-color="#fff"/></radialGradient><radialGradient id="e" cx="243.5" cy="315.51" fx="243.5" fy="315.51" r="183.28" gradientTransform="translate(0 557.28) scale(1 -1)" gradientUnits="userSpaceOnUse"><stop offset=".11" stop-color="#fff"/><stop offset=".95" stop-color="#6d6e71"/></radialGradient><linearGradient id="f" x1="0" y1="350.36" x2="666.68" y2="350.36" gradientTransform="translate(0 557.28) scale(1 -1)" gradientUnits="userSpaceOnUse"><stop offset="0" stop-color="#fbc926"/><stop offset=".25" stop-color="#fffbcc"/><stop offset=".3" stop-color="#f8ebb8"/><stop offset=".39" stop-color="#e7cf8e"/><stop offset=".52" stop-color="#d0a953"/><stop offset=".6" stop-color="#c3922e"/><stop offset=".81" stop-color="#e2c675"/><stop offset=".87" stop-color="#eed688"/><stop offset="1" stop-color="#fffbcc"/></linearGradient></defs><g><path class="j" d="M467.6,100.14c-.4-.1-.7-.1-1.1-.1H26.1c-4.2,0-7.7,3.4-7.7,7.7v217.9c0,4.2,3.4,7.7,7.7,7.7s7.7-3.4,7.7-7.7V115.44H463.9c47.4,0,86,38.6,86,86s-36.7,84.6-83.5,85.9h-20.9c-4.2,0-7.7,3.4-7.7,7.7s3.4,7.7,7.7,7.7h21.3c26.5-.7,51.2-11.6,69.7-30.6s28.7-44.1,28.7-70.7c0-54.7-43.4-99.3-97.6-101.3Z"/><path class="h" d="M57.5,333.34c-4.2,0-7.7-3.4-7.7-7.7V138.44c0-3.1,1.9-5.9,4.7-7.1,2.9-1.2,6.2-.5,8.4,1.7l183.9,183.3c3,3,3,7.9,0,10.9s-7.9,3-10.9,0L65.2,156.94v168.7c0,4.3-3.5,7.7-7.7,7.7Z"/><path class="k" d="M428.7,130.74h-141.8c-29.4,0-53.2,23.9-53.2,53.2s22.7,52.4,51.7,53.2h135.6v88.5c0,4.2,3.4,7.7,7.7,7.7s7.7-3.4,7.7-7.7V138.44c-.1-4.2-3.5-7.7-7.7-7.7Zm-132.8,91.1h-10.1c-20.6-.6-36.8-17.2-36.8-37.8s17-37.9,37.9-37.9h134.1v75.7h-125.1Z"/><path class="l" d="M338.7,150.74c-2.8-1.2-6-.7-8.3,1.4l-171.3,156.2v-57.7l-15.4-15.3v90.4c0,3,1.8,5.8,4.6,7,1,.4,2.1,.7,3.1,.7,1.9,0,3.7-.7,5.2-2l171.3-156.2v48.5c0,4.2,3.4,7.7,7.7,7.7s7.7-3.4,7.7-7.7v-65.9c0-3.1-1.8-5.8-4.6-7.1Z"/><path class="g" d="M396.4,182.14c-23,23-45,46-66.5,68.1-21.4,22.1-42.4,43.4-62.8,63.2-10.5,9.9-20.9,19.5-31.8,27.8-5.3,4.3-10.9,8.2-16.3,12.1-2.7,1.9-5.5,3.7-8.2,5.5-1.4,.9-2.7,1.8-4.1,2.7-1.4,.8-2.8,1.7-4.1,2.5-2.8,1.7-5.5,3.3-8.2,5-2.8,1.5-5.5,3.1-8.2,4.6-1.4,.7-2.7,1.5-4.1,2.2s-2.7,1.4-4.1,2.1c-2.7,1.4-5.4,2.8-8.1,4-5.4,2.5-10.7,5-16,7.1-5.3,2.3-10.5,4.2-15.6,6.1-10.3,3.6-20.2,6.7-29.8,9.1-1.2,.3-2.4,.6-3.5,.9-1.2,.3-2.4,.5-3.5,.8l-6.9,1.5c-4.5,.8-8.9,1.8-13.2,2.4-17.1,2.8-32,3.7-44.1,3.8-24.3,.1-37.5-3.3-37.3-4.5,.2-1.3,13.4-.6,37-2.9,11.8-1.2,26.1-3.2,42.5-6.8,4.1-.8,8.3-2,12.6-3,2.2-.6,4.3-1.2,6.6-1.8,1.1-.3,2.2-.6,3.3-.9,1.1-.3,2.2-.7,3.4-1.1,9.1-2.7,18.5-6.1,28.2-10,4.8-2,9.8-4,14.8-6.4,5-2.2,10-4.8,15.1-7.4,2.5-1.3,5.1-2.7,7.6-4.1,1.3-.7,2.6-1.4,3.9-2.1s2.5-1.5,3.8-2.3c2.6-1.5,5.1-3.1,7.7-4.6,2.5-1.6,5.1-3.3,7.7-5,1.3-.8,2.6-1.7,3.9-2.5,1.3-.9,2.5-1.8,3.8-2.7,2.6-1.8,5.2-3.6,7.7-5.5,5-3.9,10.3-7.7,15.3-11.9,10.3-8.2,20.1-17.5,30-27.2,19.9-20,40.4-41.4,61.6-63.7,21.3-22.3,43.3-45.5,66.5-68.7,31.6-31.7,61.5-58.8,89.9-80.8,3.6-2.7,7-5.5,10.6-8,3.5-2.6,7-5.1,10.4-7.6,7-4.8,13.7-9.5,20.4-13.7,6.6-4.4,13.3-8.2,19.6-12,3.2-1.8,6.4-3.6,9.5-5.3,1.6-.9,3.1-1.7,4.6-2.5,1.6-.8,3.1-1.6,4.6-2.4,24.5-12.5,46.5-20.8,65.2-26.2,9.4-2.6,17.9-4.9,25.6-6.4,7.6-1.8,14.5-2.6,20.5-3.6,3.2-.5,3.9,3.6,.9,4.5-5.7,1.7-12.4,3.3-19.7,5.7-7.4,2.2-15.5,5.2-24.3,8.5-17.7,6.8-38.4,16.3-61.4,29.7-1.4,.8-2.9,1.7-4.4,2.5-1.4,.9-2.9,1.8-4.4,2.7-2.9,1.8-5.9,3.7-9,5.6-6,4-12.2,8-18.5,12.5-6.3,4.3-12.7,9.1-19.3,14-3.2,2.5-6.5,5.1-9.9,7.7-3.4,2.6-6.7,5.4-10.1,8.1-27.1,22.3-56.1,49.2-87.4,80.6Z"/></g><path class="i" d="M663.9,.14c-5.9,1-12.8,1.9-20.5,3.6-7.7,1.5-16.2,3.7-25.6,6.4-18.7,5.4-40.7,13.7-65.2,26.2-1.5,.8-3.1,1.6-4.6,2.4-1.5,.8-3.1,1.7-4.6,2.5-3.1,1.7-6.3,3.5-9.5,5.3-6.3,3.8-13,7.6-19.6,12-6.7,4.2-13.4,8.9-20.4,13.7-3.4,2.5-6.9,5-10.4,7.6s-7,5.3-10.6,8c-5,3.9-10.1,8-15.2,12.2H26.1c-4.2,0-7.7,3.4-7.7,7.7v217.9c0,4.2,3.4,7.7,7.7,7.7s7.7-3.4,7.7-7.7V115.44H439.5c-5.6,4.9-11.3,10.1-17.1,15.3h-135.5c-29.4,0-53.2,23.9-53.2,53.2,0,16,6.9,30.2,17.9,40l-50.9,46.4L62.9,133.04c-2.2-2.2-5.5-2.8-8.4-1.7-2.9,1.2-4.7,4-4.7,7.1v187.2c0,4.2,3.4,7.7,7.7,7.7s7.7-3.4,7.7-7.7V156.94l124.2,123.8-30.2,27.5v-57.6l-15.4-15.3v90.4c0,3,1.8,5.8,4.6,7,1,.4,2.1,.7,3.1,.7,1.9,0,3.7-.7,5.2-2l43.6-39.8,31.2,31.1c-2.2,1.9-4.4,3.7-6.6,5.5-5,4.3-10.2,8-15.3,11.9-2.6,1.9-5.2,3.6-7.7,5.5-1.3,.9-2.6,1.8-3.8,2.7-1.3,.8-2.6,1.7-3.9,2.5-2.6,1.7-5.1,3.3-7.7,5-2.6,1.5-5.2,3.1-7.7,4.6-1.3,.8-2.5,1.5-3.8,2.3-1.3,.7-2.6,1.4-3.9,2.1-2.6,1.4-5.1,2.8-7.6,4.1-5.1,2.5-10.1,5.2-15.1,7.4-5,2.4-9.9,4.4-14.8,6.4-9.8,3.8-19.2,7.3-28.2,10-1.1,.4-2.3,.7-3.4,1.1-1.1,.3-2.2,.6-3.3,.9-2.2,.6-4.4,1.2-6.6,1.8-4.3,1-8.5,2.2-12.6,3-16.3,3.7-30.7,5.7-42.5,6.8C13.4,408.64,.2,407.84,0,409.24c-.2,1.3,13,4.6,37.3,4.5,12.1-.1,27-1,44.1-3.8,4.3-.6,8.7-1.6,13.2-2.4,2.3-.5,4.5-1,6.9-1.5,1.2-.3,2.3-.5,3.5-.8s2.4-.6,3.5-.9c9.5-2.3,19.5-5.5,29.8-9.1,5.1-1.9,10.4-3.8,15.6-6.1,5.3-2.1,10.6-4.6,16-7.1,2.7-1.3,5.4-2.7,8.1-4,1.4-.7,2.7-1.4,4.1-2.1,1.4-.7,2.7-1.5,4.1-2.2,2.7-1.5,5.5-3,8.2-4.6s5.4-3.3,8.2-5c1.4-.8,2.8-1.7,4.1-2.5,1.4-.9,2.7-1.8,4.1-2.7,2.7-1.8,5.5-3.6,8.2-5.5,5.4-3.9,11-7.7,16.3-12.1,10.9-8.3,21.4-17.9,31.8-27.8,20.4-19.8,41.3-41.1,62.8-63.2,4.2-4.3,8.4-8.7,12.6-13h78.4v88.5c0,4.2,3.4,7.7,7.7,7.7s7.7-3.4,7.7-7.7V143.44c10.6-9.9,20.9-19.2,31-27.9,45.8,1.8,82.6,39.6,82.6,85.9s-36.7,84.6-83.5,85.9h-20.9c-4.2,0-7.7,3.4-7.7,7.7s3.4,7.7,7.7,7.7h21.3c26.5-.7,51.2-11.6,69.7-30.6s28.7-44.1,28.7-70.7c0-49.2-35.3-90.3-81.9-99.4,.1-.1,.3-.3,.5-.4,3.4-2.7,6.7-5.5,10.1-8.1,3.4-2.6,6.7-5.2,9.9-7.7,6.6-4.9,12.9-9.7,19.3-14,6.2-4.5,12.5-8.5,18.5-12.5,3-1.9,6-3.7,9-5.6,1.5-.9,2.9-1.8,4.4-2.7,1.5-.8,2.9-1.7,4.4-2.5,23-13.4,43.7-22.9,61.4-29.7,8.9-3.3,17-6.3,24.3-8.5,7.3-2.5,13.9-4.1,19.7-5.7,3-.9,2.2-5-.9-4.5ZM249,184.04c0-20.9,17-37.9,37.9-37.9h119c-7.6,7.2-15.2,14.7-23,22.5-13.6,13.6-26.8,27.2-39.7,40.7v-51.5c0-3-1.8-5.8-4.6-7s-6-.7-8.3,1.4l-67.3,61.4c-8.5-7.1-14-17.7-14-29.6Zm78.9,37.8h-42.1c-2.7-.1-5.4-.5-7.9-1.1l50-45.6v46.7Zm-11.4,15.5c-21.2,22.3-41.8,43.7-61.6,63.7-4,3.9-8,7.7-11.9,11.4l-31.3-31.2,53.4-48.7c6.2,2.8,13.1,4.4,20.4,4.6h1.5l29.5,.2c0-.1,0,0,0,0Zm104.5-15.5h-63.5c12.7-13.1,25.7-26.4,39-39.7,8.4-8.4,16.5-16.4,24.6-24.1v63.8h-.1Z"/><g><path class="g" d="M19.3,462.84c0-4.2,.9-8,2.6-11.2s4.1-5.8,7.2-7.5c3.1-1.8,6.7-2.7,10.7-2.7,1.7,0,3.3,.2,5,.5,1.6,.3,2.8,.7,3.6,1.1v2.5c-3.1-1.1-5.9-1.7-8.3-1.7-3.3,0-6.3,.7-9,2.2-2.7,1.4-4.9,3.6-6.5,6.4-1.6,2.8-2.4,6.3-2.4,10.4,0,5.8,1.6,10.3,4.8,13.4,3.2,3.1,7.8,4.7,13.7,4.7,2.8,0,5.5-.5,8.1-1.6v2.5c-1,.5-2.3,.9-3.8,1.2s-3.1,.4-4.7,.4c-6.7,0-11.9-1.8-15.5-5.4-3.7-3.4-5.5-8.5-5.5-15.2Z"/><path class="g" d="M67.5,444.74h-14v-2.5h30.7v2.5h-14v38h-2.7v-38Z"/><path class="g" d="M90.2,480.84c.5,.1,1.3,.1,2.4,.1,2.3,0,4.1-.7,5.6-2,1.4-1.3,3.1-3.9,4.9-7.7l-15.4-29.1h2.8l13.8,26.3h.2l11.5-26.3h2.7l-13.2,29.5c-2,4.5-4,7.6-5.9,9.3s-4.4,2.5-7.3,2.5l-2.1-.1v-2.5h0Z"/><path class="g" d="M118.2,480.34h2.1c3.7-4.8,6.7-10.4,9.1-16.8,2.4-6.4,4-13.5,4.8-21.3h16.7v38.1h5v15.8h-2.7v-13.4h-32.3v13.4h-2.7v-15.8Zm30,0v-35.7h-11.7c-1.6,13.5-5.9,25.3-12.9,35.6v.1h24.6Z"/><path class="g" d="M196.2,482.84h-2.7v-22.4c0-6.9,.1-11.7,.4-14.2h-.1l-7.6,10.8-18.3,25.8h-2.3v-40.5h2.7v24.1c0,5.8-.1,10-.4,12.5h.2l7.6-11.1,18.2-25.6h2.3v40.6h0Z"/><path class="g" d="M214.6,465.34v-.2c-3-.7-5.3-2.1-6.7-4s-2.2-4.3-2.2-6.9c0-3.8,1.2-6.8,3.6-8.9,2.4-2.1,5.9-3.1,10.3-3.1h12.5v40.5h-2.7v-17.3h-11.8l-10,17.3h-3.1l10.1-17.4Zm14.8-2.3v-18.4h-9.5c-3.9,0-6.8,.8-8.6,2.5-1.9,1.6-2.8,3.9-2.8,6.9,0,2.8,.8,5,2.5,6.7,1.6,1.6,4.4,2.4,8.2,2.4h10.2v-.1Z"/><path class="g" d="M252,481.94v-2.6c1.8,.6,3.4,1.1,4.9,1.3,1.5,.3,3.2,.4,5.3,.4,5.1,0,8.8-1.6,11.1-4.7,2.3-3.1,3.5-7.6,3.5-13.5h-21.1v-2.4h21.1c0-5.3-1.3-9.3-3.9-12.3-2.6-2.9-6.3-4.4-11.1-4.4-3.3,0-6.3,.6-8.9,1.7v-2.5c1-.4,2.4-.8,4.1-1.1,1.7-.3,3.3-.5,5-.5,6.1,0,10.7,1.9,13.5,5.8,2.9,3.8,4.3,9.1,4.3,15.9s-1.5,11.6-4.6,15.1-7.4,5.3-13.1,5.3c-2,0-4-.1-5.8-.4-1.9-.2-3.3-.6-4.3-1.1Z"/><path class="g" d="M289.4,482.84v-40.5h29.4v40.5h-2.7v-38.1h-24v38.1h-2.7Z"/><path class="g" d="M360.2,482.84h-2.7v-22.4c0-6.9,.1-11.7,.4-14.2h-.1l-7.6,10.8-18.3,25.8h-2.3v-40.5h2.7v24.1c0,5.8-.1,10-.4,12.5h.2l7.6-11.1,18.2-25.6h2.3v40.6Z"/><path class="g" d="M366.5,483.24v-2.6h.4c1.9,0,3.7-.9,5.5-2.8s3.6-5.6,5.5-11.2c1.9-5.6,3.6-13.8,5.2-24.4h17.2v40.5h-2.7v-38.1h-12.3c-1.6,10.2-3.3,18.1-5.3,23.8s-4,9.5-6,11.6-4.2,3.1-6.5,3.1h-1v.1Z"/><path class="g" d="M418.8,465.34v-.2c-3-.7-5.3-2.1-6.7-4s-2.2-4.3-2.2-6.9c0-3.8,1.2-6.8,3.6-8.9,2.4-2.1,5.9-3.1,10.3-3.1h12.5v40.5h-2.7v-17.3h-11.8l-10,17.3h-3.1l10.1-17.4Zm14.8-2.3v-18.4h-9.5c-3.9,0-6.8,.8-8.6,2.5-1.9,1.6-2.8,3.9-2.8,6.9,0,2.8,.8,5,2.5,6.7s4.4,2.4,8.2,2.4h10.2v-.1Z"/><path class="g" d="M477.6,496.24v-13.4h-30.6v-40.5h2.7v38.1h22.9v-38.1h2.7v38.1h5.1v15.8h-2.8Z"/><path class="g" d="M520.5,482.84h-2.6v-22.4c0-6.9,.1-11.7,.4-14.2h-.1l-7.6,10.8-18.3,25.8h-2.4v-40.5h2.7v24.1c0,5.8-.1,10-.4,12.5h.2l7.6-11.1,18.2-25.6h2.3v40.6Z"/><path class="g" d="M561.9,482.84h-2.7v-22.4c0-6.9,.1-11.7,.4-14.2h-.1l-7.6,10.8-18.3,25.8h-2.3v-40.5h2.7v24.1c0,5.8-.1,10-.4,12.5h.2l7.6-11.1,18.2-25.6h2.3v40.6h0Z"/></g></svg>